{"title":"Life with Mikey (1993) 1080p fiveofseven","uid":14756727,"size":2714770661,"categoryP":"video","categoryS":"hd___movies","magnet":"?xt=urn:btih:99ea98c900769549b4568ddedcd9f7ed5df111bc&amp;dn=Life+with+Mikey+%281993%29+1080p+fiveofseven&amp;tr=udp%3A%2F%2Ftracker.leechers-paradise.org%3A6969&amp;tr=udp%3A%2F%2Fzer0day.ch%3A1337&amp;tr=udp%3A%2F%2Fopen.demonii.com%3A1337&amp;tr=udp%3A%2F%2Ftracker.coppersurfer.tk%3A6969&amp;tr=udp%3A%2F%2Fexodus.desync.com%3A6969","seeders":1,"leechers":0,"uploader":"fiveofseven","files":3,"time":1464823745,"description":"\nPLOT - Michael Chapman was once a child TV star. But when he grew up, \r\nhe couldn't get work. So he and his brother, Ed start their own \r\ntalent agency that specializes in child acts. They can't seem \r\nto find the next big thing and they have to deal with another \r\nagency who's not above bribery to get the kids to sign with them. \r\nOne day Michael meets a girl named Angie and she's a real spitfire. \r\nMichael thinks she could what they are looking for. \r\nProblem is that she has a big chip on her shoulder.\r\n\r\n\r\nINFO\r\n\r\nEncoder: fiveofseven\r\nSource: Blu-Ray\r\nRating: PG\r\nGenre: Comedy, Family\r\nSubtitles: English\r\nPoster: \r  https://yuq.me/users/25/564/H5jqhuIPBp.jpg \r\n\r\nGeneral\r\nComplete name                            : Life With Mikey 1080p (fiveofseven).mp4\r\nFormat                                   : MPEG-4\r\nFormat profile                           : Base Media\r\nCodec ID                                 : isom\r\nFile size                                : 2.51 GiB\r\nDuration                                 : 1h 31mn\r\nOverall bit rate mode                    : Variable\r\nOverall bit rate                         : 3 932 Kbps\r\nEncoded date                             : UTC 2016-05-14 12:11:08\r\nTagged date                              : UTC 2016-05-20 17:34:22\r\nWriting application                      : My MP4Box GUI 0.6.0.6 &lt;http://my-mp4box-gui.zymichost.com&gt;\r\n\r\nVideo\r\nID                                       : 1\r\nFormat                                   : AVC\r\nFormat/Info                              : Advanced Video Codec\r\nFormat profile                           :   \r\nFormat settings, CABAC                   : Yes\r\nFormat settings, ReFrames                : 7 frames\r\nCodec ID                                 : avc1\r\nCodec ID/Info                            : Advanced Video Coding\r\nDuration                                 : 1h 31mn\r\nBit rate                                 : 3 800 Kbps\r\nMaximum bit rate                         : 11.0 Mbps\r\nWidth                                    : 1 920 pixels\r\nHeight                                   : 1 080 pixels\r\nDisplay aspect ratio                     : 16:9\r\nFrame rate mode                          : Constant\r\nFrame rate                               : 23.976 fps\r\nColor space                              : YUV\r\nChroma subsampling                       : 4:2:0\r\nBit depth                                : 8 bits\r\nScan type                                : Progressive\r\nBits/(Pixel*Frame)                       : 0.076\r\nStream size                              : 2.43 GiB (97%)\r\nTitle                                    : LWM 1080p.mp4\r\nWriting library                          : x264 core 146 r2538 121396c\r\nLanguage                                 : English\r\nEncoded date                             : UTC 2016-05-14 07:53:11\r\nTagged date                              : UTC 2016-05-14 12:12:39\r\n\r\nAudio\r\nID                                       : 2\r\nFormat                                   : AAC\r\nFormat/Info                              : Advanced Audio Codec\r\nFormat profile                           : LC\r\nCodec ID                                 : 40\r\nDuration                                 : 1h 31mn\r\nBit rate mode                            : Variable\r\nBit rate                                 : 128 Kbps\r\nMaximum bit rate                         : 132 Kbps\r\nChannel count                            : 2 channels\r\nChannel positions                        : Front: L R\r\nSampling rate                            : 48.0 KHz\r\nCompression mode                         : Lossy\r\nStream size                              : 83.7 MiB (3%)\r\nTitle                                    : aac.mp4\r\nLanguage                                 : English\r\nEncoded date                             : UTC 2016-05-14 12:12:34\r\nTagged date                              : UTC 2016-05-14 12:12:39\r\n\r\n\r\nScreenshots - \r\n  \nhttps://yuq.me/users/25/564/4xjAYqI6rF.jpg \r\n  \nhttps://yuq.me/users/25/564/VldmTUvqFf.jpg \r\n  \nhttps://yuq.me/users/25/564/YwFR2tWpPH.jpg \r\n  \nhttps://yuq.me/users/25/564/ghOxq3D8LW.jpg \r\n \r\nsignature \r\n  \nhttps://yuq.me/users/25/564/aegRQCBILx.png","torrent":{"xt":"urn:btih:99ea98c900769549b4568ddedcd9f7ed5df111bc","amp;dn":"Life+with+Mikey+%281993%29+1080p+fiveofseven","amp;tr":["udp%3A%2F%2Ftracker.leechers-paradise.org%3A6969","udp%3A%2F%2Fzer0day.ch%3A1337","udp%3A%2F%2Fopen.demonii.com%3A1337","udp%3A%2F%2Ftracker.coppersurfer.tk%3A6969","udp%3A%2F%2Fexodus.desync.com%3A6969"],"infoHash":"99ea98c900769549b4568ddedcd9f7ed5df111bc","infoHashBuffer":{"type":"Buffer","data":[153,234,152,201,0,118,149,73,180,86,141,222,220,217,247,237,93,241,17,188]},"announce":[],"urlList":[]}}